<svg width="15" height="15" viewBox="0 0 15 15" fill="none" xmlns="http://www.w3.org/2000/svg">
<g clip-path="url(#clip0)">
<path d="M14.7602 11.1894L14.2689 11.6842C14.1143 11.8387 13.9085 11.9238 13.6886 11.9238C13.4689 11.9238 13.2629 11.8387 13.1083 11.6842L7.50335 6.079L1.89197 11.6904C1.73758 11.8449 1.5316 11.9299 1.31184 11.9299C1.09208 11.9299 0.885983 11.8449 0.731469 11.6904L0.240002 11.1987C-0.0800007 10.8789 -0.0800007 10.3581 0.240002 10.0383L6.92103 3.33325C7.07542 3.17885 7.28116 3.07007 7.50287 3.07007H7.50543C7.72531 3.07007 7.93104 3.17898 8.08543 3.33325L14.7602 10.0201C14.9149 10.1745 14.9998 10.3865 15 10.6062C15 10.8261 14.9149 11.0351 14.7602 11.1894Z" fill="#3A3A3A"/>
</g>
<defs>
<clipPath id="clip0">
<rect width="15" height="15" transform="matrix(1 0 0 -1 0 15)" fill="white"/>
</clipPath>
</defs>
</svg>
