<?xml version="1.0" encoding="utf-8"?>
<!-- Generator: Adobe Illustrator 22.0.1, SVG Export Plug-In . SVG Version: 6.00 Build 0)  -->
<svg version="1.1" id="Capa_1" xmlns="http://www.w3.org/2000/svg" xmlns:xlink="http://www.w3.org/1999/xlink" x="0px" y="0px"
	 viewBox="0 0 512 512" style="enable-background:new 0 0 512 512;" xml:space="preserve">
<style type="text/css">
	.st0{fill:#4B4B4B;}
</style>
<g>
	<g>
		<path class="st0" d="M447.5,343.2c-1.1-1.8-7.5-15.9-38.7-44.8c-32.7-30.3-28.3-25.4,11.1-77.8c23.9-31.9,33.5-51.4,30.6-59.7
			c-2.8-8-20.5-5.8-20.5-5.8l-58.6,0.4c0,0-4.3-0.6-7.6,1.3c-3.1,1.9-5.1,6.3-5.1,6.3s-9.3,24.7-21.6,45.7
			c-26.1,44.3-36.6,46.7-40.9,44c-9.9-6.4-7.4-25.8-7.4-39.5c0-43,6.5-60.9-12.7-65.5c-6.4-1.5-11.1-2.6-27.4-2.7
			c-20.9-0.2-38.6,0.1-48.7,5c-6.6,3.3-11.8,10.5-8.7,11c3.9,0.5,12.7,2.4,17.3,8.7c6,8.2,5.8,26.5,5.8,26.5s3.5,50.6-8.1,56.9
			c-7.9,4.3-18.8-4.5-42-44.8c-11.9-20.6-20.9-43.4-20.9-43.4s-1.8-4.3-4.8-6.5c-3.7-2.7-9-3.6-9-3.6L73.7,155c0,0-8.3,0.3-11.4,3.9
			c-2.7,3.3-0.2,9.9-0.2,9.9s43.6,102.1,93,153.5c45.3,47.2,96.8,44,96.8,44h23.3c0,0,7-0.8,10.6-4.7c3.3-3.5,3.2-10.3,3.2-10.3
			s-0.4-31.3,14.1-35.9c14.3-4.5,32.7,30.2,52.2,43.6c14.7,10.1,25.9,7.9,25.9,7.9l52.1-0.7C433.2,366.3,460.4,364.7,447.5,343.2z"
			/>
	</g>
</g>
</svg>
